<mxfile host="app.diagrams.net" modified="2023-07-22T13:03:08.150Z" agent="Mozilla/5.0 (iPhone; CPU iPhone OS 16_2 like Mac OS X) AppleWebKit/605.1.15 (KHTML, like Gecko) Version/16.2 Mobile/15E148 Safari/604.1" version="21.6.5" etag="oydUU_7B5PJirB7ZfRoh" type="github">
  <diagram name="Страница 1" id="0W98HGE03mvVuUpbjciZ">
    <mxGraphModel>
      <root>
        <mxCell id="0" />
        <mxCell id="1" parent="0" />
      </root>
    </mxGraphModel>
  </diagram>
</mxfile>
